<?xml version="1.0" encoding="utf-8"?>
<!-- Generator: Adobe Illustrator 24.1.3, SVG Export Plug-In . SVG Version: 6.00 Build 0)  -->
<svg version="1.1" id="Livello_1" xmlns="http://www.w3.org/2000/svg" xmlns:xlink="http://www.w3.org/1999/xlink" x="0px" y="0px"
	 viewBox="0 0 731.3 80.5" style="enable-background:new 0 0 731.3 80.5;" xml:space="preserve">
<style type="text/css">
	.st0{fill-rule:evenodd;clip-rule:evenodd;fill:#004B88;}
	.st1{fill:#004B88;}
</style>
<path class="st0" d="M706.1,30c-13.9,0-25.2,11.3-25.2,25.2c0,13.9,11.3,25.2,25.2,25.2c13.9,0,25.2-11.3,25.2-25.2
	C731.3,41.3,720,30,706.1,30z M695.9,65.9h-3.5v-4.6h3.5V65.9z M703.9,65.9h-4.2V49.3h4.2V65.9z M703.9,47h-4.2v-4.2h4.2V47z
	 M715.6,65.8c-0.8,0.3-1.7,0.4-2.6,0.4c-0.6,0-1.1-0.1-1.7-0.2c-0.5-0.1-1-0.4-1.4-0.7s-0.7-0.7-0.9-1.3c-0.2-0.5-0.4-1.1-0.4-1.9
	v-9.5h-2.2v-3.3h2.2V44h4.2v5.4h3.5v3.3h-3.5v8.1c0,0.6,0.2,1,0.5,1.3c0.3,0.2,0.7,0.4,1.1,0.4c0.4,0,0.9-0.1,1.3-0.2
	c0.4-0.2,0.8-0.3,1-0.4l0.9,3.4C717.1,65.3,716.4,65.6,715.6,65.8z"/>
<g id="Livello_2_2_">
	<g id="Layer_2_1_">
		<g id="Layer_1_1_">
			<polygon class="st1" points="42.7,14.7 48.8,14.7 48.8,65.8 42.7,65.8 42.7,79.5 69.1,79.5 69.1,65.8 63.2,65.8 63.2,14.7 
				69.1,14.7 69.1,1.1 42.7,1.1 			"/>
			<polygon class="st1" points="186.2,37.4 186.4,43.1 185.5,39.6 174,1.1 160.6,1.1 160.6,79.5 174,79.5 174,51.2 173.7,45 
				174.8,48.5 186.5,79.5 199.6,79.5 199.6,1.1 186.2,1.1 			"/>
			<path class="st1" d="M219.9,60.5l2.5-24.4l0.6-14l0.6,14l2.6,24.4H219.9z M215.7,1.1L202,79.5h14.7l1.2-6.9h10.4l1.2,6.9h14.9
				l-14-78.4H215.7z"/>
			<polygon class="st1" points="262.2,1.1 246.8,1.1 246.8,79.5 277.5,79.5 277.5,65.8 262.2,65.8 			"/>
			<polygon class="st1" points="295.1,46.6 310.2,46.6 310.2,33.4 295.1,33.4 295.1,14.4 312,14.4 312,1.1 280.4,1.1 280.4,79.5 
				312.3,79.5 312.3,65.8 295.1,65.8 			"/>
			<polygon class="st1" points="583.3,1.1 567.9,1.1 567.9,79.5 598.6,79.5 598.6,65.8 583.3,65.8 			"/>
			<path class="st1" d="M651.1,30.1l0.6-7.9l0.6,7.9l2.6,30.4h-6.4L651.1,30.1z M644.4,1.1l-13.7,78.4h14.7l1.2-6.9h10.3l1.2,6.9
				h14.9L659,1.1H644.4z"/>
			<polygon class="st1" points="376.2,14.7 382.3,14.7 382.3,65.8 376.2,65.8 376.2,79.5 402.6,79.5 402.6,65.8 396.7,65.8 
				396.7,14.7 402.6,14.7 402.6,1.1 376.2,1.1 			"/>
			<polygon class="st1" points="461.9,14.7 468,14.7 468,65.8 461.9,65.8 461.9,79.5 488.3,79.5 488.3,65.8 482.4,65.8 482.4,14.7 
				488.3,14.7 488.3,1.1 461.9,1.1 			"/>
			<polygon class="st1" points="601.6,14.7 607.7,14.7 607.7,65.8 601.6,65.8 601.6,79.5 628,79.5 628,65.8 622.1,65.8 622.1,14.7 
				628,14.7 628,1.1 601.6,1.1 			"/>
			<polygon class="st1" points="534.9,14.7 541,14.7 541,65.8 534.9,65.8 534.9,79.5 561.3,79.5 561.3,65.8 555.4,65.8 555.4,14.7 
				561.3,14.7 561.3,1.1 534.9,1.1 			"/>
			<path class="st1" d="M96.3,60.4c0,2.5-0.3,4.3-0.8,5.3c-0.6,1-1.8,1.6-3,1.5c-1.2,0.1-2.4-0.5-3-1.5c-0.7-1.7-0.9-3.4-0.8-5.2
				V19.7c-0.1-1.8,0.2-3.6,0.8-5.3c1.2-1.6,3.5-2,5.1-0.8c0.3,0.2,0.6,0.5,0.8,0.8c0.5,1,0.8,2.8,0.8,5.3V60.4z M92.5,0.1
				c-5.8,0-10.5,1.5-14,4.6C75,7.8,73.2,12.5,73.2,19v42.6c0,6.6,1.8,11.4,5.3,14.4c3.5,3,8.2,4.5,14,4.5c3.5,0.1,6.9-0.6,10.1-2
				c2.8-1.3,5.2-3.4,6.8-6.1c0.8-1.5,1.5-3.1,1.8-4.8c0.4-2,0.7-4,0.6-6V19c0-6.4-1.8-11.2-5.4-14.3C102.9,1.6,98.2,0.1,92.5,0.1"/>
			<path class="st1" d="M19.7,0.1c-5.9,0-10.7,1.5-14.3,4.4S0,12.2,0,18.8v42.9C0,68.3,1.1,73.1,3.2,76c2.1,3,5.5,4.4,10.1,4.4
				c3.5,0,6.2-0.9,8.3-2.8c1.7-1.6,2.8-3.6,3.4-5.8l0.7,7.5h13.2v-43H18.7v12.1h5.2v11.6c0,2.7-0.4,4.5-1.1,5.5
				c-0.8,1-2,1.5-3.2,1.4c-1.3,0.1-2.5-0.6-3.1-1.7c-0.7-1.6-1-3.4-0.9-5.2V19.8c0-2.5,0.3-4.3,1-5.3c0.6-1,1.8-1.6,3-1.6
				c1.1-0.1,2.2,0.3,3,1.1c0.7,0.8,1,2.3,1,4.5v11.3h15.5V17.6c0-6-1.6-10.5-4.9-13.3S26,0.1,19.7,0.1"/>
			<path class="st1" d="M356.6,59.7c0,2.6-0.4,4.4-1.2,5.5c-0.8,1.1-2.2,1.7-3.6,1.6h-2.5V13.4h2.5c1.4-0.1,2.7,0.5,3.5,1.5
				c0.8,1,1.3,2.9,1.3,5.5V59.7z M362.7,2.9c-1.5-0.7-3.1-1.1-4.7-1.4c-1.8-0.3-3.6-0.4-5.3-0.4h-18.3v78.4h18.1
				c3.5,0.1,6.9-0.6,10.1-1.8c2.9-1.2,5.3-3.2,6.9-5.8c0.9-1.4,1.5-3,1.9-4.6c0.4-2,0.7-4,0.6-6V19.3c0-4.5-0.8-8-2.5-10.7
				C368,6,365.6,4,362.7,2.9"/>
			<path class="st1" d="M453,37c-0.9-0.7-2-1.4-2.9-2s-2-1.2-2.9-1.7c-2.3-1.2-4.3-2.4-6.1-3.5c-1.6-0.9-2.6-2.5-2.6-4.3v-9.7
				c-0.1-1.1,0.2-2.1,0.7-3.1c0.6-0.7,1.5-1,2.4-0.9c0.9-0.1,1.8,0.2,2.4,0.9c0.5,1,0.7,2.1,0.6,3.2v12H459V14.9
				c0-4.9-1.5-8.5-4.4-11s-7.3-3.8-13-3.9c-5.9,0-10.3,1.3-13.5,3.9c-3.1,2.6-4.7,6.6-4.7,12v10.8c-0.1,2.7,0.5,5.4,1.8,7.7
				c1.2,2,2.8,3.8,4.7,5.2c0.9,0.7,1.8,1.4,2.8,2c1,0.6,1.9,1.2,2.9,1.7c2.2,1.2,4.3,2.5,6.3,3.9c1.7,1.1,2.8,3,2.8,5.1v11.5
				c0.1,1-0.2,2-0.6,2.9c-0.4,0.7-1.2,1-2.5,1s-2.3-0.3-2.8-1c-0.5-0.9-0.7-1.9-0.7-2.9V49.1h-15.3v15c0,5.4,1.4,9.5,4.1,12.3
				c2.7,2.8,7.5,4.1,14.3,4.1c6.3,0,10.9-1.4,14-4.1c3-2.7,4.5-6.7,4.5-12V50.3c0.1-2.8-0.6-5.5-2-8C456.6,40.3,454.9,38.5,453,37"
				/>
			<path class="st1" d="M515.8,61.2c0,1.5-0.2,3-0.7,4.5c-0.4,0.9-1.3,1.4-2.8,1.4s-2.4-0.5-2.8-1.5c-0.5-1.7-0.7-3.5-0.6-5.3V19.8
				c-0.1-1.8,0.1-3.6,0.7-5.3c0.5-1.1,1.6-1.7,2.8-1.6c1.4,0,2.3,0.4,2.8,1.3c0.5,1.4,0.8,2.9,0.7,4.4v11.2h15.8V17.3
				c0-6-1.7-10.3-5-13.1c-3.3-2.7-8-4.1-14.1-4.1c-5.8,0-10.4,1.4-13.9,4.3s-5.2,7.6-5.2,14.2v42.8c0,6.7,1.5,11.5,4.6,14.5
				c3.1,3,7.8,4.5,14.2,4.5c6.1,0,10.9-1.4,14.2-4.1c3.3-2.7,5.1-7.5,5.2-14.2V48.1h-15.8V61.2z"/>
			<path class="st1" d="M138.6,35.6c-0.9,0.7-2,0.9-3.1,0.8h-3.3V13.1h3.3c1.1-0.1,2.2,0.2,3.1,0.9c0.7,0.9,1,2,0.9,3.1v15.6
				C139.6,33.8,139.3,34.8,138.6,35.6 M153.5,65.3v-8l0,0v-4.7c0.1-2.3-0.3-4.5-1.1-6.7c-0.9-1.7-2.4-3-4.2-3.5
				c1.8-0.7,3.3-1.9,4.3-3.6c1.1-2,1.6-4.3,1.5-6.6V16.6c0-5.7-1.4-9.8-4.1-12.1s-7.2-3.5-13.3-3.5H118v78.4h14.1V49.1h2.2
				c1.7,0,2.8,0.3,3.4,0.9s0.9,1.8,0.9,3.5v18c0,4.4,3.6,8,8,8c0,0,0.1,0,0.1,0h9.8V66.8H155C154.2,66.8,153.5,66.1,153.5,65.3"/>
		</g>
	</g>
</g>
</svg>
